<?xml version="1.0" standalone="no"?>
<!DOCTYPE svg PUBLIC "-//W3C//DTD SVG 20010904//EN" "http://www.w3.org/TR/2001/REC-SVG-20010904/DTD/svg10.dtd">
 <svg
    version="1.0"
    xmlns="http://www.w3.org/2000/svg"
    width="360px"
    height="360px"
    viewBox="0 0 360 360">
  <path
    id="blob"
    fill="#0b192c"
    d="M 143.00,40.21 C 143.00,40.21 130.00,41.28 130.00,41.28 103.91,44.38 78.09,49.67 60.32,71.00 47.98,85.81 47.15,100.89 45.91,119.00 45.91,119.00 45.00,129.00 45.00,129.00 45.00,129.00 45.00,149.00 45.00,149.00 45.00,149.00 43.00,180.00 43.00,180.00 43.00,180.00 43.00,214.00 43.00,214.00 43.00,249.77 45.03,289.38 79.00,310.58 86.14,315.03 91.94,317.57 100.00,319.96 113.34,323.93 139.55,323.98 154.00,324.00 154.00,324.00 171.00,325.00 171.00,325.00 171.00,325.00 219.00,325.00 219.00,325.00 229.55,324.98 242.51,322.83 253.00,321.08 270.36,318.19 288.55,313.83 302.00,301.83 319.90,285.85 327.72,262.61 328.00,239.00 328.00,239.00 329.00,217.00 329.00,217.00 329.00,217.00 329.00,191.00 329.00,191.00 328.97,174.17 323.84,137.79 321.27,120.00 317.80,95.96 311.04,74.04 291.00,58.53 276.54,47.33 251.07,42.22 233.00,42.00 233.00,42.00 199.00,40.21 199.00,40.21 199.00,40.21 143.00,40.21 143.00,40.21 Z" />
</svg>
